<svg width="46" height="46" viewBox="0 0 46 46" fill="none" xmlns="http://www.w3.org/2000/svg">
<g clip-path="url(#clip0_4002_2053)">
<path d="M46 23C46 10.2975 35.7025 0 23 0C10.2975 0 0 10.2975 0 23C0 35.7025 10.2975 46 23 46C35.7025 46 46 35.7025 46 23Z" fill="#0052FF" fill-opacity="0.9"/>
<path d="M22.9803 34.3703C29.2728 34.3703 34.3739 29.2796 34.3739 23.0001C34.3739 16.7205 29.2728 11.6299 22.9803 11.6299C17.0104 11.6299 12.1129 16.212 11.6265 22.0443H26.6861V23.9558H11.6265C12.1129 29.7882 17.0104 34.3703 22.9803 34.3703Z" fill="#1A64FF"/>
<rect x="-1" y="22" width="28" height="2" fill="black"/>
</g>
<defs>
<clipPath id="clip0_4002_2053">
<rect width="46" height="46" fill="white"/>
</clipPath>
</defs>
</svg>
