<svg width="33" height="53" viewBox="0 0 33 53" fill="none" xmlns="http://www.w3.org/2000/svg">
<path d="M16.5013 36.7002C16.3459 36.753 16.2573 36.6178 16.1517 36.5556C10.9714 33.4983 5.7969 30.4388 0.628063 27.3773C0.578012 27.352 0.526049 27.3307 0.472656 27.3136V27.2452L0.564351 27.1924C0.694541 27.1582 0.822702 27.1167 0.948211 27.068L13.1554 21.5138C14.2433 21.0181 15.3311 20.5301 16.419 20.039H16.4967C16.4967 20.1944 16.4967 20.3327 16.4967 20.4804C16.5008 25.8875 16.5024 31.2941 16.5013 36.7002Z" fill="#343535"/>
<path d="M16.509 20.0428H16.4313C16.4313 19.8874 16.4469 19.732 16.4469 19.5688C16.4469 13.4955 16.4469 7.42166 16.4469 1.34733C16.429 1.19132 16.4396 1.03337 16.478 0.881111H16.5106C17.1493 1.82443 17.7057 2.81903 18.2931 3.79343C22.947 11.513 27.5984 19.2315 32.2471 26.949C32.2922 27.0252 32.3279 27.1045 32.3683 27.1884C32.2367 27.1602 32.1073 27.1223 31.9814 27.0749C31.1282 26.6895 30.2719 26.2979 29.4265 25.9047C28.1024 25.2986 26.7778 24.6936 25.4527 24.0896L19.0686 21.1974C18.2185 20.8058 17.3638 20.4251 16.509 20.0428Z" fill="#2F3030"/>
<path d="M16.4831 0.873079C16.4447 1.02534 16.4341 1.18329 16.452 1.3393C16.452 7.4126 16.452 13.4864 16.452 19.5607C16.452 19.7161 16.4427 19.8716 16.4365 20.0347C15.3486 20.5258 14.2608 21.0138 13.1729 21.5095L0.965706 27.0638C0.840197 27.1124 0.712036 27.1539 0.581846 27.1881C0.93462 26.4546 1.39308 25.7894 1.81112 25.087C6.65464 17.0359 11.5018 8.98635 16.3525 0.938352C16.3846 0.893769 16.4194 0.851209 16.4567 0.810918L16.4831 0.873079Z" fill="#828384"/>
<path d="M16.509 20.0428C17.3638 20.4251 18.2188 20.806 19.072 21.1914L25.4561 24.0835C26.7822 24.6865 28.1068 25.2915 29.4298 25.8986C30.2815 26.2887 31.1393 26.6834 31.9847 27.0688C32.1107 27.1162 32.2401 27.1542 32.3717 27.1823C32.5271 27.3766 32.2971 27.3843 32.2272 27.4263C30.9016 28.2189 29.5697 29.0005 28.241 29.7869C24.4273 32.0434 20.6146 34.2994 16.803 36.5549C16.7067 36.6108 16.6023 36.652 16.5013 36.7002C16.5013 31.2951 16.5015 25.8903 16.5015 20.4843C16.5031 20.3366 16.5075 20.1904 16.509 20.0428Z" fill="#131313"/>
<path d="M16.4467 39.7705L26.4316 33.8852C28.3379 32.7601 30.2432 31.6339 32.1475 30.5067L32.32 30.4119C32.3371 30.5673 32.2299 30.6497 32.1646 30.7398C27.8132 36.8742 23.4618 43.0066 19.1104 49.1369C18.2867 50.2993 17.4646 51.468 16.6332 52.6211C16.5897 52.6817 16.5229 52.9661 16.3892 52.6646C16.4949 52.5745 16.4483 52.4532 16.4483 52.3538C16.4493 48.1578 16.4488 43.9634 16.4467 39.7705Z" fill="#2F3030"/>
<path d="M16.4459 39.7713C16.4459 43.9641 16.4459 48.156 16.4459 52.3468C16.4459 52.454 16.4925 52.5752 16.3868 52.6576C16.1646 52.524 16.0682 52.2846 15.9206 52.0873C10.875 44.98 5.83209 37.8717 0.791729 30.7623C0.728012 30.6722 0.668954 30.5759 0.603683 30.4764C0.734225 30.4002 0.804163 30.5044 0.880312 30.5494C5.98284 33.5623 11.0843 36.5777 16.1848 39.5957C16.2796 39.6547 16.3604 39.7153 16.4459 39.7713Z" fill="#828384"/>
<path d="M16.4842 0.872994L16.4469 0.815494C16.5153 0.77198 16.506 0.835696 16.5169 0.868332L16.4842 0.872994Z" fill="#393939"/>
</svg>
