<svg width="133" height="24" viewBox="0 0 133 24" fill="none" xmlns="http://www.w3.org/2000/svg">
<path d="M14.9923 13.7083L14.9923 23.9575L12.3306 21.2958C12.2428 21.208 12.1766 21.1009 12.1373 20.9831L11.3413 18.595C11.2922 18.4478 11.2969 18.2879 11.3546 18.1438V18.1438C11.9075 16.7615 12.7959 15.5385 13.9397 14.5854L14.9923 13.7083Z" fill="url(#paint0_linear_25123_73426)"/>
<path d="M14.9923 13.7083L14.9923 23.9575L17.654 21.2958C17.7419 21.208 17.808 21.1009 17.8473 20.9831L18.6433 18.595C18.6924 18.4478 18.6877 18.2879 18.6301 18.1438V18.1438C18.0771 16.7615 17.1887 15.5385 16.0449 14.5854L14.9923 13.7083Z" fill="url(#paint1_linear_25123_73426)"/>
<path d="M10.2245 11.3743L2.97718 18.6216L2.97717 14.8573C2.97717 14.7331 3.00608 14.6106 3.06163 14.4996L4.18736 12.2481C4.25677 12.1093 4.37313 11.9995 4.51578 11.9384V11.9384C5.88425 11.3519 7.37722 11.1154 8.85995 11.2502L10.2245 11.3743Z" fill="url(#paint2_linear_25123_73426)"/>
<path d="M10.2245 11.3743L2.97718 18.6216L6.74142 18.6216C6.86561 18.6216 6.98811 18.5927 7.09919 18.5371L9.35067 17.4114C9.48949 17.342 9.59921 17.2256 9.66035 17.083V17.083C10.2468 15.7145 10.4833 14.2215 10.3485 12.7388L10.2245 11.3743Z" fill="url(#paint3_linear_25123_73426)"/>
<path d="M19.7755 11.3743L27.0228 18.6216L27.0228 14.8573C27.0228 14.7331 26.9939 14.6106 26.9384 14.4996L25.8126 12.2481C25.7432 12.1093 25.6269 11.9995 25.4842 11.9384V11.9384C24.1157 11.3519 22.6228 11.1154 21.14 11.2502L19.7755 11.3743Z" fill="url(#paint4_linear_25123_73426)"/>
<path d="M19.7755 11.3743L27.0228 18.6216L23.2586 18.6216C23.1344 18.6216 23.0119 18.5927 22.9008 18.5371L20.6493 17.4114C20.5105 17.342 20.4008 17.2256 20.3397 17.083V17.083C19.7532 15.7145 19.5167 14.2215 19.6515 12.7388L19.7755 11.3743Z" fill="url(#paint5_linear_25123_73426)"/>
<circle cx="14.9924" cy="8.73887" r="6.83288" fill="url(#paint6_linear_25123_73426)" stroke="url(#paint7_linear_25123_73426)" stroke-width="3.72703"/>
<circle cx="14.9924" cy="8.73883" r="2.48468" fill="#E0EBFF"/>
<path d="M36.1357 17.7121L33 17.7291V6.2878H37.3901C40.7801 6.2878 42.7632 7.89805 42.7632 10.5592C42.7632 13.3051 40.8817 14.9323 37.5595 14.9323H36.1357V17.7121ZM37.4748 9.1693H36.1357V12.0508H37.4748C38.8816 12.0508 39.5427 11.5254 39.5427 10.5592C39.5427 9.66085 38.8308 9.1693 37.4748 9.1693Z" fill="white"/>
<path d="M47.673 17.7291H44.5373V6.2878H47.673V10.5931H52.1648V6.2878H55.3005V17.7291H52.1648V13.4746H47.673V17.7291Z" fill="white"/>
<path d="M63.1979 17.9833C59.7401 17.9833 57.1637 15.4239 57.1637 12.0169C57.1637 8.60995 59.7401 6.0505 63.1979 6.0505C66.6557 6.0505 69.2321 8.60995 69.2321 12.0169C69.2321 15.4239 66.6557 17.9833 63.1979 17.9833ZM63.1979 15.0171C64.7912 15.0171 66.0116 13.7119 66.0116 12.0169C66.0116 10.3219 64.7912 9.01675 63.1979 9.01675C61.6046 9.01675 60.3842 10.3219 60.3842 12.0169C60.3842 13.7119 61.6046 15.0171 63.1979 15.0171Z" fill="white"/>
<path d="M79.6133 6.2878V9.1693H76.3758V17.7291H73.2401V9.1693H70.0026V6.2878H79.6133Z" fill="white"/>
<path d="M86.4048 17.9833C82.947 17.9833 80.3706 15.4239 80.3706 12.0169C80.3706 8.60995 82.947 6.0505 86.4048 6.0505C89.8626 6.0505 92.439 8.60995 92.439 12.0169C92.439 15.4239 89.8626 17.9833 86.4048 17.9833ZM86.4048 15.0171C87.9981 15.0171 89.2185 13.7119 89.2185 12.0169C89.2185 10.3219 87.9981 9.01675 86.4048 9.01675C84.8115 9.01675 83.5911 10.3219 83.5911 12.0169C83.5911 13.7119 84.8115 15.0171 86.4048 15.0171Z" fill="white"/>
<path d="M97.1928 17.7291H94.2266V7.96585C94.2266 6.74545 95.1758 6.0166 96.1758 6.0166C96.9725 6.0166 97.6674 6.2878 98.0742 6.9319L102.108 13.3221V6.2878H105.075V16.051C105.075 17.2714 104.125 17.9833 103.125 17.9833C102.346 17.9833 101.634 17.7121 101.227 17.068L97.1928 10.6779V17.7291Z" fill="white"/>
<path d="M132.241 17.9244H127.629V10.9224H132.241V12.1418H128.996V13.7841H131.759V15.0036H128.996V16.7049H132.241V17.9244Z" fill="url(#paint8_linear_25123_73426)"/>
<path d="M126.342 15.8591C126.342 16.5213 126.1 17.0425 125.615 17.4227C125.13 17.7964 124.507 17.9833 123.746 17.9833C123.196 17.9833 122.714 17.9144 122.301 17.7768C121.894 17.6325 121.524 17.3932 121.189 17.0589L122.074 16.1738C122.284 16.3836 122.53 16.5344 122.812 16.6262C123.1 16.7179 123.418 16.7638 123.766 16.7638C124.592 16.7638 125.005 16.4754 125.005 15.8984C125.005 15.6558 124.943 15.469 124.818 15.3379C124.694 15.2002 124.477 15.1084 124.169 15.0625L123.776 15.0035L123.323 14.9445C122.727 14.8593 122.274 14.6659 121.966 14.3643C121.632 14.0299 121.465 13.571 121.465 12.9875C121.465 12.3515 121.684 11.8402 122.124 11.4533C122.563 11.06 123.156 10.8633 123.904 10.8633C124.395 10.8633 124.821 10.9288 125.182 11.06C125.543 11.1845 125.87 11.3911 126.165 11.6795L125.3 12.5351C125.103 12.345 124.884 12.2171 124.641 12.1516C124.405 12.086 124.146 12.0532 123.864 12.0532C123.517 12.0532 123.248 12.1385 123.058 12.3089C122.874 12.4728 122.782 12.6826 122.782 12.9383C122.782 13.1219 122.855 13.2891 122.999 13.4399C123.143 13.5841 123.356 13.6759 123.638 13.7152L124.061 13.7742L124.464 13.8332C124.779 13.8791 125.041 13.9447 125.251 14.0299C125.467 14.1151 125.651 14.2299 125.802 14.3741C126.162 14.715 126.342 15.21 126.342 15.8591Z" fill="url(#paint9_linear_25123_73426)"/>
<path d="M120.956 17.9244H119.53L119.117 16.6852H116.629L116.206 17.9244H114.78L117.327 10.9224H118.399L120.956 17.9244ZM118.753 15.5346L117.898 12.9876L117.013 15.5346H118.753Z" fill="url(#paint10_linear_25123_73426)"/>
<path d="M114.149 15.9083C114.149 16.5443 113.952 17.0393 113.559 17.3933C113.166 17.7473 112.648 17.9244 112.005 17.9244H109.075V10.9224H111.887C112.569 10.9224 113.1 11.0994 113.48 11.4534C113.861 11.8074 114.051 12.286 114.051 12.8892C114.051 13.2432 113.959 13.5481 113.775 13.8038C113.598 14.0529 113.402 14.23 113.185 14.3348C113.448 14.4594 113.674 14.6495 113.864 14.9052C114.054 15.1544 114.149 15.4887 114.149 15.9083ZM112.684 12.9482C112.684 12.7056 112.605 12.5122 112.448 12.368C112.29 12.2172 112.067 12.1418 111.779 12.1418H110.442V13.7546H111.779C112.067 13.7546 112.29 13.6825 112.448 13.5383C112.605 13.3875 112.684 13.1908 112.684 12.9482ZM112.782 15.8395C112.782 15.5904 112.703 15.3871 112.546 15.2298C112.389 15.0659 112.163 14.9839 111.868 14.9839H110.442V16.7049H111.868C112.163 16.7049 112.389 16.623 112.546 16.459C112.703 16.2951 112.782 16.0886 112.782 15.8395Z" fill="url(#paint11_linear_25123_73426)"/>
<defs>
<linearGradient id="paint0_linear_25123_73426" x1="14.9923" y1="13.7083" x2="14.9923" y2="23.647" gradientUnits="userSpaceOnUse">
<stop stop-color="#8100E7"/>
<stop offset="0.536458" stop-color="#3EFFF3"/>
<stop offset="1" stop-color="#00BBF5"/>
</linearGradient>
<linearGradient id="paint1_linear_25123_73426" x1="14.9923" y1="13.7083" x2="14.9923" y2="23.647" gradientUnits="userSpaceOnUse">
<stop stop-color="#1D0AFF"/>
<stop offset="0.510417" stop-color="#00C2FF"/>
</linearGradient>
<linearGradient id="paint2_linear_25123_73426" x1="10.2245" y1="11.3743" x2="3.19674" y2="18.402" gradientUnits="userSpaceOnUse">
<stop stop-color="#8100E7"/>
<stop offset="0.536458" stop-color="#3EFFF3"/>
<stop offset="1" stop-color="#00BBF5"/>
</linearGradient>
<linearGradient id="paint3_linear_25123_73426" x1="10.2245" y1="11.3743" x2="3.19674" y2="18.402" gradientUnits="userSpaceOnUse">
<stop stop-color="#1D0AFF"/>
<stop offset="0.510417" stop-color="#00C2FF"/>
</linearGradient>
<linearGradient id="paint4_linear_25123_73426" x1="19.7755" y1="11.3743" x2="26.8033" y2="18.402" gradientUnits="userSpaceOnUse">
<stop stop-color="#1D0AFF"/>
<stop offset="0.510417" stop-color="#00C2FF"/>
</linearGradient>
<linearGradient id="paint5_linear_25123_73426" x1="19.7755" y1="11.3743" x2="26.8033" y2="18.402" gradientUnits="userSpaceOnUse">
<stop stop-color="#8100E7"/>
<stop offset="0.536458" stop-color="#3EFFF3"/>
<stop offset="1" stop-color="#00BBF5"/>
</linearGradient>
<linearGradient id="paint6_linear_25123_73426" x1="14.9924" y1="0.0424805" x2="14.9924" y2="17.4353" gradientUnits="userSpaceOnUse">
<stop stop-color="#232323"/>
<stop offset="0.489583" stop-color="#202947"/>
<stop offset="1" stop-color="#232323"/>
</linearGradient>
<linearGradient id="paint7_linear_25123_73426" x1="14.9924" y1="0.0424805" x2="14.9924" y2="17.4353" gradientUnits="userSpaceOnUse">
<stop stop-color="#57FFD7"/>
<stop offset="0.510417" stop-color="#E95FFF"/>
<stop offset="1" stop-color="#01FFFF"/>
</linearGradient>
<linearGradient id="paint8_linear_25123_73426" x1="108.227" y1="12.7387" x2="132.498" y2="15.5018" gradientUnits="userSpaceOnUse">
<stop stop-color="#F694FF"/>
<stop offset="0.364583" stop-color="#4FFFF4"/>
<stop offset="0.744792" stop-color="#FFE7AA"/>
<stop offset="1" stop-color="#FF79EA"/>
</linearGradient>
<linearGradient id="paint9_linear_25123_73426" x1="108.227" y1="12.7386" x2="132.498" y2="15.5017" gradientUnits="userSpaceOnUse">
<stop stop-color="#F694FF"/>
<stop offset="0.364583" stop-color="#4FFFF4"/>
<stop offset="0.744792" stop-color="#FFE7AA"/>
<stop offset="1" stop-color="#FF79EA"/>
</linearGradient>
<linearGradient id="paint10_linear_25123_73426" x1="108.227" y1="12.7387" x2="132.498" y2="15.5018" gradientUnits="userSpaceOnUse">
<stop stop-color="#F694FF"/>
<stop offset="0.364583" stop-color="#4FFFF4"/>
<stop offset="0.744792" stop-color="#FFE7AA"/>
<stop offset="1" stop-color="#FF79EA"/>
</linearGradient>
<linearGradient id="paint11_linear_25123_73426" x1="108.227" y1="12.7387" x2="132.498" y2="15.5018" gradientUnits="userSpaceOnUse">
<stop stop-color="#F694FF"/>
<stop offset="0.364583" stop-color="#4FFFF4"/>
<stop offset="0.744792" stop-color="#FFE7AA"/>
<stop offset="1" stop-color="#FF79EA"/>
</linearGradient>
</defs>
</svg>
